# xmcd
#
# Track frame offsets: 
#        150
#        13965
#        33313
#        47243
#        68736
#        84793
#        99980
#        114512
#        129275
#        147577
#        167822
#        183014
#        203472
#        219949
#        233557
#        248259
#
# Disc length: 3516 seconds
#
# Revision: 1
# Processed by: cddbd v1.5.2PL0 Copyright (c) Steve Scherf et al.
# Submitted via: ExactAudioCopyFreeDBPlugin 1.0
#
DISCID=c30dba10
DTITLE=Miguel - Wildheart (Deluxe Edition)
DYEAR=2015
DGENRE=R&B
TTITLE0=A Beautiful Exit
TTITLE1=DEAL
TTITLE2=The Valley
TTITLE3=Coffee
TTITLE4=NWA [feat. Kurupt]
TTITLE5=Waves
TTITLE6=What's Normal Anyway
TTITLE7=Hollywood Dreams
TTITLE8=goingtohell
TTITLE9=FLESH
TTITLE10=Leaves
TTITLE11=Face The Sun [feat. Lenny Kravitz]
TTITLE12=Gfg
TTITLE13=Destinado A Morir
TTITLE14=Simple Things
TTITLE15=Damned
EXTD=
EXTT0=
EXTT1=
EXTT2=
EXTT3=
EXTT4=
EXTT5=
EXTT6=
EXTT7=
EXTT8=
EXTT9=
EXTT10=
EXTT11=
EXTT12=
EXTT13=
EXTT14=
EXTT15=
PLAYORDER=
